{"title":"The Omen 2006 720p.BluRay.5.1.x264 . NVEE","uid":12138816,"size":1492808482,"categoryP":"video","categoryS":"hd___movies","magnet":"?xt=urn:btih:44c36c7d6e3a88a6ef99e6a2e49b999671a6aa67&amp;dn=The+Omen+2006+720p.BluRay.5.1.x264+.+NVEE&amp;tr=udp%3A%2F%2Ftracker.openbittorrent.com%3A80&amp;tr=udp%3A%2F%2Fopen.demonii.com%3A1337&amp;tr=udp%3A%2F%2Ftracker.coppersurfer.tk%3A6969&amp;tr=udp%3A%2F%2Fexodus.desync.com%3A6969","seeders":6,"leechers":1,"uploader":".NVEE","files":7,"time":1437296071,"description":"Quick note : \n\nTrackers refresh never most current &amp; so if, \nYou require a torrent release I have posted in the past, not seeding,... \nPlease do not hesitate to inform me in any means you find fit to do so. \nTorrent requests also &quot;Always Welcome.&quot; \n\n \nFULL_INFOs \n\n99.99% &gt;&gt;&gt; SYNCED GUARANTEED \n\n&quot;Totally scrutinized / analyzed to be a verified torrent.&quot; \n___________________________________________ \n\nSource : Blu-ray ~ 720p \n\n \n\nSpoken Language : English \n\nAudio : 6 ~ Channels Only \n\n \nSubs Info : \n\nx6 ~ Multisubs .srt \n\nAll .srt UTF-8 .idx &amp; .ass subs can be turned On/Off \n_____________________________________ \n--------------------------------------------------------------------------------- \n \nGeneral Metadata \n\nComplete name : The Omen 2006.720p.BluRay.5.1.x264 . NVEE.mp4 \nFormat : MPEG-4 \nFormat profile : Base Media \nCodec ID : isom \nFile size : 1.39 GiB \nDuration : 1h 49mn \nOverall bit rate : 1 812 Kbps \nEncoded date : UTC 2015-07-13 19:58:50 \nTagged date : UTC 2015-07-13 19:58:50 \n\n \nVideo \n\nID : 1 \nFormat : AVC \nFormat/Info : Advanced Video Codec \nFormat profile : High@L4 \nFormat settings, CABAC : Yes \nFormat settings, ReFrames : 6 frames \nCodec ID : avc1 \nCodec ID/Info : Advanced Video Coding \nDuration : 1h 49mn \nBit rate : 1 170 Kbps \nMaximum bit rate : 8 907 Kbps \nWidth : 1 280 pixels \nHeight : 688 pixels \nDisplay aspect ratio : 1.85:1 \nFrame rate mode : Constant \nFrame rate : 23.976 fps \nColor space : YUV \nChroma subsampling : 4:2:0 \nBit depth : 8 bits \nScan type : Progressive \nBits/(Pixel*Frame) : 0.055 \nStream size : 919 MiB (65%) \nWriting library : x264 core 146 r2538 121396c \n\nEncoded from Physical Blu-ray / Region A \n\n \nAudio \n\nID : 2 \nFormat : AC-3 \nFormat/Info : Audio Coding 3 \nMode extension : CM (complete main) \nFormat settings, Endianness : Big \nCodec ID : ac-3 \nDuration : 1h 49mn \nBit rate mode : Constant \nBit rate : 640 Kbps \nMaximum bit rate : 676 Kbps \nChannel(s) : 6 channels \nChannel positions : Front: L C R, Side: L R, LFE \nSampling rate : 48.0 KHz \nBit depth : 16 bits \nCompression mode : Lossy \nStream size : 503 MiB (35%) \nLanguage : English \nEncoded date : UTC 2015-07-13 20:03:10 \nTagged date : UTC 2015-07-13 20:05:04 \n\nEncoded from Physical Blu-ray 6 Channel audio &quot;Only&quot;. \n\n\n \n\n \n\n \n\n\n\n\nEnj0y !","torrent":{"xt":"urn:btih:44c36c7d6e3a88a6ef99e6a2e49b999671a6aa67","amp;dn":"The+Omen+2006+720p.BluRay.5.1.x264+.+NVEE","amp;tr":["udp%3A%2F%2Ftracker.openbittorrent.com%3A80","udp%3A%2F%2Fopen.demonii.com%3A1337","udp%3A%2F%2Ftracker.coppersurfer.tk%3A6969","udp%3A%2F%2Fexodus.desync.com%3A6969"],"infoHash":"44c36c7d6e3a88a6ef99e6a2e49b999671a6aa67","infoHashBuffer":{"type":"Buffer","data":[68,195,108,125,110,58,136,166,239,153,230,162,228,155,153,150,113,166,170,103]},"announce":[],"urlList":[]}}